#!OML:ASF F:\VICON\USERDATA\INSTALL\rory3\rory3.ASF
:FULLY-SPECIFIED
:DEGREES
492
root 4.18395 16.612 -16.0724 29.5072 6.56333 -1.18644
lowerback -1.13762 -2.44534 1.83574
upperback -15.9283 -2.01621 9.26296
thorax -17.1327 -0.21743 10.0323
lowerneck -11.2547 -2.40257 3.75766
upperneck 3.72448 -3.93869 3.02525
head 3.17521 -1.7574 0.0875971
rclavicle 7.55382e-015 -1.27222e-014
rhumerus -68.9424 24.9248 -38.0131
rradius 42.8619
rwrist -58.1943
rhand 32.9315 1.38361
rfingers 7.12502
rthumb 56.3215 -15.754
lclavicle 7.55382e-015 -1.27222e-014
lhumerus -80.0587 -13.5659 40.3172
lradius 18.7162
lwrist -31.8268
lhand 36.755 22.339
lfingers 7.12502
lthumb 59.6551 36.4763
rfemur -47.5342 5.4597 30.6483
rtibia 31.1829
rfoot -27.0153 -32.4411
rtoes 26.5712
lfemur -26.9525 22.6545 -33.4126
ltibia 43.9172
lfoot 48.8179 17.1934
ltoes -18.8931
493
root 4.21152 16.6194 -16.0879 29.3903 7.14506 -1.54073
lowerback -0.59126 -2.56314 2.66852
upperback -15.8392 -2.02794 9.58823
thorax -17.4164 -0.29049 9.99874
lowerneck -11.7498 -2.1975 3.75826
upperneck 3.81624 -3.66121 2.53197
head 3.29321 -1.63451 -0.0656814
rclavicle 2.33572e-014 -3.18055e-014
rhumerus -67.1707 25.5823 -35.1314
rradius 39.997
rwrist -54.847
rhand 32.947 1.16067
rfingers 7.12502
rthumb 56.3352 -15.9661
lclavicle 2.33572e-014 -3.18055e-014
lhumerus -78.9447 -14.9033 38.8904
lradius 18.6994
lwrist -32.3105
lhand 37.0667 24.347
lfingers 7.12502
lthumb 59.9224 38.2086
rfemur -47.5957 3.62938 32.0031
rtibia 31.3577
rfoot -25.814 -31.4313
rtoes 24.9464
lfemur -26.9352 22.513 -32.8968
ltibia 44.0538
lfoot 45.6514 20.3337
ltoes -14.4826
494
root 4.21948 16.6184 -16.1316 29.4404 7.07032 -1.44634
lowerback 0.208845 -2.5825 2.55419
upperback -15.9273 -1.96786 9.7832
thorax -18.0925 -0.176209 10.4057
lowerneck -11.0405 -2.08204 3.72219
upperneck 3.0974 -3.40463 1.97095
head 2.89936 -1.55569 -0.209423
rclavicle -3.81667e-014 -6.36111e-015
rhumerus -65.4485 26.3726 -32.2496
rradius 37.1967
rwrist -51.1801
rhand 32.9421 1.36406
rfingers 7.12502
rthumb 56.3308 -15.7662
lclavicle -3.81667e-014 -6.36111e-015
lhumerus -77.887 -16.3986 37.3034
lradius 18.4429
lwrist -33.5785
lhand 36.7348 25.4129
lfingers 7.12502
lthumb 59.6378 39.5678
rfemur -47.889 3.90703 31.7008
rtibia 31.452
rfoot -25.7862 -31.7663
rtoes 25.0499
lfemur -27.3756 22.5049 -33.204
ltibia 44.3406
lfoot 46.006 20.566
ltoes -14.3472
495
root 4.2305 16.6174 -16.1719 29.3844 7.01409 -1.34936
lowerback 1.1581 -2.59125 2.57325
upperback -15.7013 -1.89059 9.99022
thorax -18.4549 -0.0945029 10.7109
lowerneck -12.4696 -1.87685 3.74835
upperneck 3.30203 -3.17026 1.3441
head 3.23536 -1.45165 -0.429654
rclavicle -1.88845e-015 1.90833e-014
rhumerus -63.0457 26.5894 -29.1875
rradius 34.5582
rwrist -47.2545
rhand 33.2373 1.92608
rfingers 7.12502
rthumb 56.5915 -14.9953
lclavicle -1.88845e-015 1.90833e-014
lhumerus -76.2177 -17.1862 35.1487
lradius 17.2413
lwrist -37.8582
lhand 35.5267 23.1812
lfingers 7.12502
lthumb 58.5951 38.3563
rfemur -48.0264 4.09039 31.4127
rtibia 31.5194
rfoot -25.8767 -31.925
rtoes 25.4977
lfemur -27.6733 22.5275 -33.4709
ltibia 44.6646
lfoot 46.4097 20.0628
ltoes -15.4211
496
root 4.25496 16.6187 -16.2091 29.1897 7.33178 -1.60941
lowerback 2.17089 -2.63877 3.19514
upperback -15.6079 -1.76158 10.2453
thorax -19.0869 -0.0522447 10.76
lowerneck -13.011 -1.71049 3.50612
upperneck 3.36202 -2.91726 1.05083
head 3.36372 -1.3395 -0.476182
rclavicle -4.08502e-014 1.90833e-014
rhumerus -60.812 26.8532 -26.0642
rradius 32.2254
rwrist -42.9455
rhand 33.384 2.2159
rfingers 7.12502
rthumb 56.7209 -14.6003
lclavicle -4.08502e-014 1.90833e-014
lhumerus -74.5265 -18.3232 33.4108
lradius 16.7841
lwrist -39.565
lhand 35.1981 22.9927
lfingers 7.12502
lthumb 58.3096 38.433
rfemur -47.9993 3.34942 32.0301
rtibia 31.55
rfoot -25.3426 -31.5208
rtoes 25.1604
lfemur -27.838 22.4333 -33.2018
ltibia 45.0702
lfoot 47.0795 18.7032
ltoes -18.1895
497
root 4.26727 16.6115 -16.2404 29.4419 7.04995 -1.27908
lowerback 2.29665 -2.58426 2.6516
upperback -15.411 -1.73443 10.4293
thorax -18.8908 0.0533775 11.2791
lowerneck -13.1921 -1.60731 3.2761
upperneck 2.88346 -2.72178 0.770539
head 3.23284 -1.26726 -0.512689
rclavicle -1.38652e-014 2.22639e-014
rhumerus -58.2023 26.5088 -22.7055
rradius 30.0067
rwrist -38.2015
rhand 33.5396 2.33053
rfingers 7.12502
rthumb 56.858 -14.3732
lclavicle -1.38652e-014 2.22639e-014
lhumerus -72.4904 -19.0827 31.7674
lradius 16.3824
lwrist -41.0206
lhand 34.7655 22.757
lfingers 7.12502
lthumb 57.9327 38.5386
rfemur -48.3998 3.66091 31.4003
rtibia 31.586
rfoot -25.2597 -31.8
rtoes 25.0042
lfemur -28.502 22.5261 -33.9631
ltibia 45.4758
lfoot 47.3983 17.7078
ltoes -19.8501
498
root 4.28342 16.6034 -16.2787 29.4114 7.28413 -1.46484
lowerback 2.36185 -2.63466 3.00139
upperback -14.9601 -1.75401 10.7328
thorax -18.3309 -0.0171016 11.38
lowerneck -13.5874 -1.43976 3.21618
upperneck 2.14347 -2.47426 0.474774
head 3.05125 -1.16997 -0.580969
rclavicle 9.87711e-015 -1.59028e-014
rhumerus -55.1765 25.3902 -19.1905
rradius 27.8928
rwrist -32.9445
rhand 33.9395 2.46425
rfingers 7.12502
rthumb 57.2096 -13.9458
lclavicle 9.87711e-015 -1.59028e-014
lhumerus -70.2645 -19.5232 30.0686
lradius 16.1445
lwrist -42.18
lhand 34.557 22.6397
lfingers 7.12502
lthumb 57.7506 38.5828
rfemur -48.502 3.29814 31.7914
rtibia 31.5768
rfoot -24.9052 -31.767
rtoes 24.3588
lfemur -28.9445 22.483 -33.8813
ltibia 45.9675
lfoot 47.6041 17.1402
ltoes -20.893
499
root 4.29603 16.5932 -16.3208 29.4191 7.35133 -1.68011
lowerback 3.58749 -2.63443 3.09446
upperback -15.3682 -1.48178 11.2498
thorax -19.2265 0.117537 11.574
lowerneck -13.2758 -1.3085 3.06567
upperneck 1.88586 -2.23615 0.0519781
head 2.90385 -1.07655 -0.670516
rclavicle -2.03382e-014 2.22639e-014
rhumerus -52.717 25.2495 -15.8473
rradius 26.2431
rwrist -28.0719
rhand 34.1437 2.05011
rfingers 7.12502
rthumb 57.3887 -14.2074
lclavicle -2.03382e-014 2.22639e-014
lhumerus -68.8582 -21.205 29.3285
lradius 16.2164
lwrist -42.561
lhand 34.5719 22.8115
lfingers 7.12502
lthumb 57.7636 38.7431
rfemur -48.6991 3.25536 32.051
rtibia 31.6303
rfoot -24.9358 -31.7013
rtoes 24.3178
lfemur -29.4082 22.4985 -33.8463
ltibia 46.4056
lfoot 47.225 18.8369
ltoes -18.3807
500
root 4.31324 16.5919 -16.3653 29.3934 7.2403 -1.77155
lowerback 4.10181 -2.60297 3.18529
upperback -15.1708 -1.35622 11.4735
thorax -19.36 0.195719 11.7911
lowerneck -13.2356 -1.07982 2.99405
upperneck 1.44826 -1.89759 -0.294209
head 2.74938 -0.929636 -0.744533
rclavicle 1.82882e-014 2.54444e-014
rhumerus -49.8403 24.1482 -12.4676
rradius 24.6208
rwrist -23.5594
rhand 34.3812 1.65557
rfingers 7.12502
rthumb 57.5968 -14.4221
lclavicle 1.82882e-014 2.54444e-014
lhumerus -66.9211 -22.2296 28.3574
lradius 16.3185
lwrist -42.7166
lhand 34.4722 22.9391
lfingers 7.12502
lthumb 57.6764 38.9474
rfemur -48.8999 3.39046 31.9945
rtibia 31.6564
rfoot -24.7056 -31.8825
rtoes 23.9098
lfemur -29.7961 22.5517 -34.0178
ltibia 46.7677
lfoot 46.7696 20.4771
ltoes -15.9992
501
root 4.33612 16.5992 -16.4028 29.3278 7.3689 -1.83451
lowerback 4.61102 -2.66348 3.43486
upperback -14.958 -1.33034 11.73
thorax -19.4567 0.203188 11.9678
lowerneck -13.7557 -0.8385 2.9002
upperneck 1.4538 -1.55779 -0.70951
head 2.85444 -0.779152 -0.848925
rclavicle 6.38099e-014 -1.04958e-013
rhumerus -46.8484 22.6877 -9.06462
rradius 22.9867
rwrist -19.0626
rhand 34.7356 1.78408
rfingers 7.12502
rthumb 57.9066 -14.0209
lclavicle 6.38099e-014 -1.04958e-013
lhumerus -64.9163 -23.0322 27.2589
lradius 16.3476
lwrist -43.1081
lhand 34.2739 23.0855
lfingers 7.12502
lthumb 57.5029 39.2447
rfemur -49.0772 3.38309 31.9086
rtibia 31.7231
rfoot -24.4771 -32.144
rtoes 23.9784
lfemur -30.0088 22.4647 -34.0999
ltibia 47.0111
lfoot 46.6876 20.7349
ltoes -16.092
502
root 4.35946 16.6045 -16.4299 29.2394 7.57004 -1.99143
lowerback 5.13676 -2.71545 3.88742
upperback -14.7873 -1.255 11.9422
thorax -19.6362 0.20177 11.9666
lowerneck -14.3784 -0.650716 2.86354
upperneck 1.53356 -1.30053 -1.1019
head 3.00463 -0.668824 -0.962901
rclavicle 1.54058e-014 -4.45278e-014
rhumerus -44.562 21.8104 -6.46089
rradius 22.0066
rwrist -15.5442
rhand 34.6299 1.4548
rfingers 7.12502
rthumb 57.8143 -14.4321
lclavicle 1.54058e-014 -4.45278e-014
lhumerus -62.6184 -23.7182 25.6729
lradius 16.1733
lwrist -44.1265
lhand 34.0359 23.0009
lfingers 7.12502
lthumb 57.2942 39.3391
rfemur -49.1627 3.08983 32.1223
rtibia 31.8064
rfoot -24.2914 -32.0896
rtoes 23.8694
lfemur -30.1274 22.4109 -34.0199
ltibia 47.1936
lfoot 46.5041 21.1288
ltoes -15.7349
